<svg width="346" height="49" viewBox="0 0 346 49" fill="none" xmlns="http://www.w3.org/2000/svg">
<path d="M10.3 49V29.47H34.73V49H44.46V-3.33786e-06H34.73V19.67H10.3V-3.33786e-06H0.5V49H10.3ZM61.2277 39.2V9.8H85.6577V39.2H61.2277ZM90.5577 49L95.3877 44.17V4.97L90.5577 -3.33786e-06H56.2577L51.4277 4.97V44.17L56.2577 49H90.5577ZM112.155 39.2V29.47H136.585V39.2H112.155ZM112.155 19.67V9.8H136.585V19.67H112.155ZM141.485 49L146.315 44.17V29.47L141.485 24.57L146.315 19.67V4.97L141.485 -3.33786e-06H102.355V49H141.485ZM163.083 39.2V9.8H187.513V39.2H163.083ZM192.413 49L197.243 44.17V4.97L192.413 -3.33786e-06H158.113L153.283 4.97V44.17L158.113 49H192.413ZM243.341 49L248.171 44.17V34.37H238.441V39.2H214.011V9.8H238.441V14.7H248.171V4.97L243.341 -3.33786e-06H209.041L204.211 4.97V44.17L209.041 49H243.341ZM279.305 49V9.8H296.315V-3.33786e-06H252.355V9.8H269.505V49H279.305ZM311.013 49L335.443 16.31V49H345.173V-3.33786e-06H335.443L311.013 32.62V-3.33786e-06H301.213V49H311.013Z" fill="white"/>
</svg>
