<svg width="339" height="49" viewBox="0 0 339 49" fill="none" xmlns="http://www.w3.org/2000/svg">
<path d="M10.3 49V29.47H34.73V49H44.46V-3.33786e-06H34.73V19.67H10.3V-3.33786e-06H0.5V49H10.3ZM60.5277 24.57V19.67L70.2577 9.8H84.9577V24.57H60.5277ZM60.5277 49V34.37H84.9577V49H94.6877V-3.33786e-06H65.3577L50.7277 14.77V49H60.5277ZM160.332 49V-3.33786e-06H150.602V39.2H135.902V-3.33786e-06H126.102V39.2H111.472V-3.33786e-06H101.672V49H160.332Z" fill="white"/>
<path d="M205.193 39.2V29.47H229.623V39.2H205.193ZM234.523 49L239.353 44.17V24.57L234.523 19.67H205.193V9.8H236.973V-3.33786e-06H195.393V49H234.523ZM255.437 39.2V9.8H279.867V39.2H255.437ZM284.767 49L289.597 44.17V4.97L284.767 -3.33786e-06H250.467L245.637 4.97V44.17L250.467 49H284.767ZM321.414 49V9.8H338.424V-3.33786e-06H294.464V9.8H311.614V49H321.414Z" fill="url(#paint0_linear_212_316)"/>
<defs>
<linearGradient id="paint0_linear_212_316" x1="-61.3706" y1="-72.4286" x2="609.006" y2="93.2022" gradientUnits="userSpaceOnUse">
<stop stop-color="#00B292"/>
<stop offset="0.290505" stop-color="#2DFFD9"/>
<stop offset="0.635914" stop-color="#54FFE0"/>
<stop offset="0.978018" stop-color="#03776F"/>
</linearGradient>
</defs>
</svg>
