<svg width="477" height="96" viewBox="0 0 477 96" fill="none" xmlns="http://www.w3.org/2000/svg">
<g filter="url(#filter0_b_212_447)">
<path d="M3.98479 11.9506L15.3976 2.76721C16.819 1.62353 18.5885 1 20.4128 1H458.361C460.367 1 462.3 1.75357 463.776 3.11138L473.415 11.9753C475.063 13.4902 476 15.6259 476 17.8639V80.2719C476 82.816 474.79 85.2084 472.741 86.716L463.595 93.444C462.221 94.4548 460.56 95 458.855 95H19.9462C18.4105 95 16.9073 94.558 15.616 93.7268L4.66983 86.6805C2.38241 85.2081 1 82.6741 1 79.9537V18.1834C1 15.761 2.09755 13.4691 3.98479 11.9506Z" stroke="url(#paint0_radial_212_447)"/>
</g>
<defs>
<filter id="filter0_b_212_447" x="-49.5" y="-49.5" width="576" height="195" filterUnits="userSpaceOnUse" color-interpolation-filters="sRGB">
<feFlood flood-opacity="0" result="BackgroundImageFix"/>
<feGaussianBlur in="BackgroundImageFix" stdDeviation="25"/>
<feComposite in2="SourceAlpha" operator="in" result="effect1_backgroundBlur_212_447"/>
<feBlend mode="normal" in="SourceGraphic" in2="effect1_backgroundBlur_212_447" result="shape"/>
</filter>
<radialGradient id="paint0_radial_212_447" cx="0" cy="0" r="1" gradientUnits="userSpaceOnUse" gradientTransform="translate(-134.162 81.1896) rotate(-4.66564) scale(728.43 3513.14)">
<stop stop-color="#00D6DA"/>
<stop offset="0.498842" stop-color="#00D6DA" stop-opacity="0.23"/>
<stop offset="1" stop-color="#00D6DA"/>
</radialGradient>
</defs>
</svg>
