<svg width="527" height="53" viewBox="0 0 527 53" fill="none" xmlns="http://www.w3.org/2000/svg">
<path d="M29.375 53V11H47.6V0.499996H0.5V11H18.875V53H29.375ZM97.3977 53V42.5H63.3477V32.075H94.7727V21.575H63.3477V11H97.3977V0.499996H52.8477V53H97.3977ZM113.867 53V42.5L124.292 32.075H129.542L140.042 42.5V53H150.467V37.325L140.042 26.825L150.467 16.325V0.499996H140.042V11.075L129.542 21.575H124.292L113.867 11.075V0.499996H103.367V16.325L113.867 26.825L103.367 37.325V53H113.867ZM167.718 53V32.075H193.893V53H204.318V0.499996H193.893V21.575H167.718V0.499996H157.218V53H167.718ZM222.283 42.5V11H248.458V42.5H222.283ZM253.708 53L258.883 47.825V5.825L253.708 0.499996H216.958L211.783 5.825V47.825L216.958 53H253.708ZM276.099 53V21.5L286.524 11H302.274V53H312.699V0.499996H281.274L265.599 16.25V53H276.099ZM330.682 42.5V11H356.857V42.5H330.682ZM362.107 53L367.282 47.825V5.825L362.107 0.499996H325.357L320.182 5.825V47.825L325.357 53H362.107ZM385.247 53V11H419.297V0.499996H374.747V53H385.247ZM435.052 53L461.227 17.975V53H471.652V0.499996H461.227L435.052 35.45V0.499996H424.552V53H435.052ZM489.617 53L515.792 17.975V53H526.217V0.499996H515.792L489.617 35.45V0.499996H479.117V53H489.617Z" fill="white"/>
</svg>
